<svg width="188.672546" height="100.000000" viewBox="0 0 188.673 100" fill="none" xmlns="http://www.w3.org/2000/svg" xmlns:xlink="http://www.w3.org/1999/xlink">
	<desc>
			Created with Pixso.
	</desc>
	<defs/>
	<path id="Vector" d="M39.84 73.98C32.52 73.98 26.83 79.67 26.83 86.99C26.83 94.3 32.52 100 39.84 100C47.16 100 52.86 94.3 52.86 86.99C52.86 79.67 47.16 73.98 39.84 73.98ZM117.1 0L110.6 0L110.6 15.85L134.99 15.85L117.1 0ZM0.81 89.43L17.07 89.43C17.07 89.43 17.89 65.04 41.47 65.04C58.96 65.04 61.8 89.43 61.8 89.43L102.46 89.43L102.46 0L0 0L0.81 89.43ZM154.51 73.98C147.19 73.98 141.5 79.67 141.5 86.99C141.5 94.3 147.19 100 154.51 100C161.83 100 167.52 94.3 167.52 86.99C167.52 79.67 161.42 73.98 154.51 73.98ZM139.06 20.32L110.6 20.32L110.6 89.43L134.99 89.43C134.99 89.43 131.74 69.1 155.33 69.1C173.22 69.1 172.81 89.43 172.81 89.43L187.85 89.43L188.67 58.94L139.06 20.32ZM134.99 73.17L118.73 73.17L118.73 65.04L134.99 65.04L134.99 73.17ZM133.37 58.53L117.1 48.78L117.1 26.01L133.37 26.01L175.66 58.53L133.37 58.53Z" fill="#FFFFFF" fill-opacity="0.400000" fill-rule="nonzero"/>
</svg>
