<svg width="10.812897" height="20.000000" viewBox="0 0 10.8129 20" fill="none" xmlns="http://www.w3.org/2000/svg" xmlns:xlink="http://www.w3.org/1999/xlink">
	<desc>
			Created with Pixso.
	</desc>
	<defs/>
	<path id="Vector" d="M10.4 0L7.81 0C4.89 0 3.01 1.93 3.01 4.92L3.01 7.19L0.4 7.19C0.18 7.19 0 7.37 0 7.59L0 10.88C0 11.11 0.18 11.29 0.4 11.29L3.01 11.29L3.01 19.59C3.01 19.81 3.19 20 3.42 20L6.82 20C7.05 20 7.23 19.81 7.23 19.59L7.23 11.29L10.28 11.29C10.5 11.29 10.69 11.11 10.69 10.88L10.69 7.59C10.69 7.49 10.64 7.38 10.57 7.31C10.49 7.23 10.39 7.19 10.28 7.19L7.23 7.19L7.23 5.26C7.23 4.34 7.45 3.87 8.65 3.87L10.4 3.87C10.63 3.87 10.81 3.69 10.81 3.46L10.81 0.41C10.81 0.18 10.63 0 10.4 0Z" fill="#F13C6E" fill-opacity="1.000000" fill-rule="nonzero"/>
</svg>
