<svg width="22.000000" height="22.000000" viewBox="0 0 22 22" fill="none" xmlns="http://www.w3.org/2000/svg" xmlns:xlink="http://www.w3.org/1999/xlink">
	<desc>
			Created with Pixso.
	</desc>
	<defs>
		<clipPath id="clip24_93">
			<rect id="instagram" rx="-0.500000" width="21.000000" height="21.000000" transform="translate(0.500000 0.500000)" fill="white" fill-opacity="0"/>
		</clipPath>
	</defs>
	<rect id="instagram" rx="-0.500000" width="21.000000" height="21.000000" transform="translate(0.500000 0.500000)" fill="#FFFFFF" fill-opacity="0"/>
	<g clip-path="url(#clip24_93)">
		<path id="Vector" d="M15.12 0L6.87 0C3.07 0 0 3.07 0 6.87L0 15.12C0 18.92 3.07 22 6.87 22L15.12 22C18.92 22 22 18.92 22 15.12L22 6.87C22 3.07 18.92 0 15.12 0ZM19.93 15.12C19.93 17.77 17.77 19.93 15.12 19.93L6.87 19.93C4.22 19.93 2.06 17.77 2.06 15.12L2.06 6.87C2.06 4.22 4.22 2.06 6.87 2.06L15.12 2.06C17.77 2.06 19.93 4.22 19.93 6.87L19.93 15.12Z" fill="#F13C6E" fill-opacity="1.000000" fill-rule="nonzero"/>
		<path id="Vector" d="M11 5.5C7.96 5.5 5.5 7.96 5.5 11C5.5 14.03 7.96 16.5 11 16.5C14.03 16.5 16.5 14.03 16.5 11C16.5 7.96 14.03 5.5 11 5.5ZM11 14.43C9.1 14.43 7.56 12.89 7.56 11C7.56 9.1 9.1 7.56 11 7.56C12.89 7.56 14.43 9.1 14.43 11C14.43 12.89 12.89 14.43 11 14.43Z" fill="#F13C6E" fill-opacity="1.000000" fill-rule="nonzero"/>
		<path id="Vector" d="M17.64 5.08C17.64 5.49 17.31 5.82 16.91 5.82C16.5 5.82 16.17 5.49 16.17 5.08C16.17 4.68 16.5 4.35 16.91 4.35C17.31 4.35 17.64 4.68 17.64 5.08Z" fill="#F13C6E" fill-opacity="1.000000" fill-rule="evenodd"/>
	</g>
</svg>
