<svg width="140.000076" height="106.542542" viewBox="0 0 140 106.543" fill="none" xmlns="http://www.w3.org/2000/svg" xmlns:xlink="http://www.w3.org/1999/xlink">
	<desc>
			Created with Pixso.
	</desc>
	<defs/>
	<path id="Vector" d="M122.9 0L17.11 0C7.67 0 0 7.67 0 17.11L0 89.42C0 98.86 7.67 106.54 17.11 106.54L122.88 106.54C132.32 106.54 140 98.86 140 89.42L140 17.14C140.02 7.7 132.35 0 122.9 0ZM132.2 89.42C132.2 94.55 128.03 98.72 122.9 98.72L17.11 98.72C11.99 98.72 7.82 94.55 7.82 89.42L7.82 17.14C7.82 12.02 11.99 7.85 17.11 7.85L122.88 7.85C128 7.85 132.17 12.02 132.17 17.14L132.17 89.42L132.2 89.42Z" fill="#FFFFFF" fill-opacity="0.400000" fill-rule="nonzero"/>
	<path id="Vector" d="M88.29 52.37L122.53 21.66C124.12 20.21 124.27 17.75 122.82 16.13C121.37 14.54 118.91 14.39 117.28 15.84L70.07 58.22L60.86 49.99C60.83 49.96 60.8 49.94 60.8 49.91C60.6 49.7 60.39 49.53 60.16 49.36L22.68 15.81C21.05 14.36 18.59 14.51 17.14 16.13C15.7 17.75 15.84 20.21 17.46 21.66L52.11 52.63L17.61 84.93C16.04 86.41 15.96 88.87 17.43 90.46C18.22 91.27 19.26 91.71 20.3 91.71C21.26 91.71 22.21 91.36 22.97 90.66L57.99 57.9L67.49 66.39C68.24 67.05 69.17 67.37 70.1 67.37C71.02 67.37 71.98 67.03 72.7 66.36L82.47 57.61L117.28 90.69C118.04 91.42 119.02 91.76 119.98 91.76C121.02 91.76 122.04 91.36 122.82 90.55C124.3 88.98 124.24 86.49 122.67 85.01L88.29 52.37Z" fill="#FFFFFF" fill-opacity="0.400000" fill-rule="nonzero"/>
</svg>
