<svg width="20.000061" height="19.091248" viewBox="0 0 20.0001 19.0912" fill="none" xmlns="http://www.w3.org/2000/svg" xmlns:xlink="http://www.w3.org/1999/xlink">
	<desc>
			Created with Pixso.
	</desc>
	<defs/>
	<path id="Vector" d="M19.71 17.47L15.18 13.12C16.29 11.75 16.96 10.02 16.96 8.14C16.96 3.65 13.15 0 8.47 0C3.8 -0.01 0 3.65 0 8.14C0 12.63 3.8 16.29 8.47 16.29C10.49 16.29 12.35 15.61 13.8 14.47L18.32 18.81C18.51 18.99 18.76 19.09 19.01 19.09C19.26 19.09 19.52 18.99 19.71 18.81C20.09 18.44 20.09 17.84 19.71 17.47ZM1.96 8.14C1.96 4.69 4.88 1.88 8.47 1.88C12.07 1.88 14.99 4.69 14.99 8.14C14.99 11.59 12.07 14.4 8.47 14.4C4.88 14.4 1.96 11.59 1.96 8.14Z" fill="#BDBDBD" fill-opacity="1.000000" fill-rule="nonzero"/>
</svg>
