<svg width="28.043396" height="16.000000" viewBox="0 0 28.0434 16" fill="none" xmlns="http://www.w3.org/2000/svg" xmlns:xlink="http://www.w3.org/1999/xlink">
	<desc>
			Created with Pixso.
	</desc>
	<defs/>
	<path id="Vector" d="M27.89 14.44C27.86 14.37 27.82 14.31 27.79 14.26C27.31 13.39 26.38 12.31 25.01 11.04L24.98 11.01L24.96 10.99L24.95 10.98L24.93 10.98C24.31 10.38 23.92 9.98 23.75 9.78C23.45 9.39 23.38 9 23.55 8.6C23.66 8.29 24.1 7.66 24.86 6.68C25.26 6.17 25.58 5.75 25.81 5.44C27.49 3.2 28.22 1.77 28 1.15L27.91 1C27.85 0.92 27.7 0.84 27.46 0.76C27.22 0.69 26.9 0.68 26.52 0.73L22.32 0.76C22.25 0.73 22.15 0.73 22.03 0.76C21.9 0.79 21.84 0.81 21.84 0.81L21.76 0.84L21.71 0.89C21.66 0.92 21.6 0.97 21.55 1.04C21.49 1.11 21.44 1.2 21.4 1.3C20.94 2.47 20.42 3.57 19.84 4.58C19.48 5.19 19.15 5.71 18.84 6.15C18.54 6.59 18.29 6.92 18.09 7.13C17.88 7.34 17.7 7.51 17.53 7.63C17.37 7.76 17.24 7.81 17.15 7.79C17.06 7.77 16.98 7.76 16.9 7.74C16.77 7.65 16.66 7.53 16.57 7.38C16.49 7.23 16.44 7.04 16.41 6.81C16.38 6.58 16.36 6.38 16.36 6.22C16.35 6.05 16.35 5.82 16.36 5.52C16.37 5.21 16.38 5.01 16.38 4.9C16.38 4.53 16.38 4.13 16.4 3.7C16.41 3.27 16.43 2.92 16.44 2.67C16.45 2.42 16.45 2.15 16.45 1.87C16.45 1.58 16.43 1.36 16.4 1.2C16.37 1.04 16.31 0.89 16.25 0.73C16.18 0.58 16.08 0.47 15.95 0.38C15.82 0.3 15.65 0.24 15.46 0.19C14.94 0.07 14.28 0.01 13.49 0C11.68 -0.02 10.51 0.09 10 0.35C9.79 0.45 9.61 0.6 9.44 0.79C9.27 1 9.24 1.12 9.37 1.14C9.95 1.22 10.37 1.43 10.61 1.76L10.7 1.94C10.77 2.07 10.83 2.29 10.9 2.61C10.97 2.93 11.01 3.29 11.03 3.68C11.08 4.39 11.08 5 11.03 5.5C10.98 6.01 10.94 6.4 10.89 6.68C10.85 6.97 10.79 7.2 10.7 7.37C10.61 7.55 10.55 7.65 10.52 7.69C10.49 7.73 10.47 7.76 10.45 7.76C10.32 7.81 10.19 7.84 10.06 7.84C9.92 7.84 9.75 7.77 9.56 7.63C9.36 7.5 9.16 7.31 8.95 7.07C8.74 6.83 8.51 6.5 8.24 6.07C7.98 5.64 7.71 5.14 7.43 4.55L7.19 4.13C7.05 3.86 6.85 3.46 6.59 2.94C6.34 2.42 6.12 1.91 5.92 1.43C5.85 1.22 5.73 1.07 5.57 0.96L5.5 0.92C5.45 0.88 5.37 0.84 5.27 0.79C5.16 0.75 5.05 0.72 4.93 0.7L0.93 0.73C0.52 0.73 0.24 0.82 0.1 1L0.04 1.09C0.01 1.14 0 1.22 0 1.33C0 1.43 0.02 1.56 0.08 1.72C0.67 3.09 1.3 4.42 1.99 5.69C2.67 6.97 3.27 7.99 3.78 8.77C4.28 9.55 4.8 10.29 5.32 10.98C5.85 11.67 6.2 12.11 6.37 12.31C6.54 12.5 6.67 12.65 6.77 12.74L7.13 13.09C7.37 13.33 7.71 13.61 8.16 13.93C8.62 14.26 9.12 14.58 9.67 14.9C10.22 15.21 10.86 15.47 11.59 15.67C12.32 15.87 13.03 15.95 13.72 15.91L15.4 15.91C15.74 15.88 16 15.78 16.17 15.59L16.23 15.52C16.27 15.46 16.31 15.37 16.34 15.25C16.37 15.13 16.39 14.99 16.39 14.85C16.38 14.43 16.41 14.05 16.49 13.71C16.56 13.38 16.64 13.13 16.73 12.96C16.83 12.79 16.93 12.64 17.05 12.52C17.17 12.41 17.25 12.34 17.3 12.31C17.35 12.29 17.38 12.27 17.41 12.26C17.65 12.18 17.92 12.26 18.24 12.49C18.56 12.72 18.85 13 19.13 13.34C19.41 13.67 19.74 14.05 20.13 14.47C20.52 14.89 20.86 15.2 21.15 15.4L21.44 15.58C21.64 15.69 21.89 15.8 22.2 15.9C22.51 16 22.79 16.02 23.02 15.97L26.76 15.91C27.13 15.91 27.42 15.85 27.62 15.73C27.82 15.61 27.95 15.47 27.99 15.33C28.02 15.18 28.03 15.02 27.99 14.83C27.96 14.65 27.92 14.52 27.89 14.44Z" fill="#F13C6E" fill-opacity="1.000000" fill-rule="nonzero"/>
</svg>
