<svg width="22.181824" height="16.000000" viewBox="0 0 22.1818 16" fill="none" xmlns="http://www.w3.org/2000/svg" xmlns:xlink="http://www.w3.org/1999/xlink">
	<desc>
			Created with Pixso.
	</desc>
	<defs/>
	<path id="Vector" d="M17.57 0L4.6 0C2.06 0 0 2.1 0 4.69L0 11.3C0 13.89 2.06 16 4.6 16L17.57 16C20.11 16 22.18 13.89 22.18 11.3L22.18 4.69C22.18 2.1 20.11 0 17.57 0ZM14.45 8.32L8.39 11.27C8.23 11.34 8.04 11.22 8.04 11.04L8.04 4.96C8.04 4.77 8.23 4.65 8.39 4.74L14.46 7.87C14.64 7.96 14.64 8.23 14.45 8.32Z" fill="#F13C6E" fill-opacity="1.000000" fill-rule="nonzero"/>
</svg>
